<svg id="visual" viewBox="0 0 900 600" width="900" height="600" xmlns="http://www.w3.org/2000/svg" xmlns:xlink="http://www.w3.org/1999/xlink" version="1.1"><path d="M0 396L21.5 405.7C43 415.3 86 434.7 128.8 441.5C171.7 448.3 214.3 442.7 257.2 433.7C300 424.7 343 412.3 385.8 404.8C428.7 397.3 471.3 394.7 514.2 406.5C557 418.3 600 444.7 642.8 457C685.7 469.3 728.3 467.7 771.2 472C814 476.3 857 486.7 878.5 491.8L900 497L900 601L878.5 601C857 601 814 601 771.2 601C728.3 601 685.7 601 642.8 601C600 601 557 601 514.2 601C471.3 601 428.7 601 385.8 601C343 601 300 601 257.2 601C214.3 601 171.7 601 128.8 601C86 601 43 601 21.5 601L0 601Z" fill="#9383bc" stroke-linecap="round" stroke-linejoin="miter"></path></svg>